<svg id="Layer_1" data-name="Layer 1" xmlns="http://www.w3.org/2000/svg" xmlns:xlink="http://www.w3.org/1999/xlink" viewBox="0 0 1588 1588"><defs><style>.cls-1{fill:url(#linear-gradient);}.cls-2{fill:#00040b;}</style><linearGradient id="linear-gradient" x1="232.56" y1="232.56" x2="1355.44" y2="1355.44" gradientUnits="userSpaceOnUse"><stop offset="0" stop-color="#42e1dd"/><stop offset="1" stop-color="#52dfae"/></linearGradient></defs><title>favicon-magellan</title><circle class="cls-1" cx="794" cy="794" r="794"/><path class="cls-2" d="M994.32,1635.71q-173.77,0-295.53-58.46t-190-169.68q-68.21-111.21-84.44-267.11-1.64-22.73-3.25-60.08t-1.62-79.57q0-42.21,1.62-79.57t3.25-58.45q11.34-110.4,53.58-203T590.81,501.5Q661.45,435.74,760.49,400t227.33-35.72q147.73,0,255.75,34.1t180.24,99.05q72.23,65,109.6,157.51t43.85,207.84q3.23,40.61,3.24,83.62t-.81,77.95q-.84,34.94-2.43,51.15-4.87,79.58-32.48,133.15T1469.27,1289q-47.91,26.79-112.85,26.8-53.58,0-90.93-17.87T1207,1258.18q-21.12-21.92-30.85-34.91-13,21.12-35.72,47.09t-64.14,43.84q-41.41,17.9-106.36,17.86-120.18,0-191.61-86.87t-71.44-244.38q0-159.12,71.44-246T970,667.93q66.57,0,104.73,24.36t60.9,53.59V718.27q0-16.21,10.55-26.79t26.79-10.55h43.85q16.2,0,26.79,10.55t10.55,26.79v345.87q0,69.84,29.23,103.92t73.07,34.1q43.85,0,65.76-25.17a129.69,129.69,0,0,0,29.23-57.64q7.3-32.46,7.31-55.21,1.6-24.36,3.25-77.94a1066.43,1066.43,0,0,0-3.25-115.29q-9.75-128.25-59.27-216T1250.88,521.79q-99.08-45.43-263.06-45.46-133.16,0-227.33,47.9T611.92,659.82q-54.43,87.67-69,211.09-3.27,27.63-4,77.94t0,101.49q.79,51.15,4,82Q564,1319.09,677.68,1420.56t316.64,101.49q116.91,0,185.11-18.68t104.73-43.84q36.54-25.15,59.27-43a212.72,212.72,0,0,0,17.86-12.18q9.75-7.3,24.36-7.31h64.95a35.85,35.85,0,0,1,25.17,9.75q10.55,9.73,10.55,26a30.59,30.59,0,0,1-2.43,12.18,33.73,33.73,0,0,1-7.31,10.55q-42.24,47.08-105.54,88.5T1216,1610.54Q1124.21,1635.7,994.32,1635.71ZM979.7,1218.4q86.05,0,121-59.27t34.91-158.32q0-99-34.91-159.13t-121-60.08q-82.82,0-118.53,60.08t-35.73,159.13q0,58.45,15.43,108t49.52,79.57Q924.5,1218.42,979.7,1218.4Z" transform="translate(-206 -206)"/></svg>